#!OML:ASF H:\Male1\Project 1\Capture day 1\Session 1\Male1.ASF
:FULLY-SPECIFIED
:DEGREES
272
root -23.2336 14.9496 0.939158 719.106 -191.008 -718.082
lowerback 3.85999 1.70521 -4.51413
upperback 4.24908 2.54008 -2.12857
thorax 2.13011 1.32244 0.289603
lowerneck -2.09399 3.73099 8.25961
upperneck 5.01318 4.91917 -3.64762
head 2.30636 2.55125 -2.49288
rclavicle -7.95139e-015 2.8625e-014
rhumerus -30.6136 2.53657 -92.4939
rradius 32.2215
rwrist -15.6454
rhand -15.8346 2.12561
rfingers 7.12502
rthumb 10.3598 -27.5992
lclavicle -7.95139e-015 2.8625e-014
lhumerus -29.6842 4.97811 64.531
lradius 35.2844
lwrist 11.5387
lhand -28.3062 19.7931
lfingers 7.12502
lthumb -1.68168 49.7662
rfemur -12.7973 -5.00599 26.0943
rtibia 42.4919
rfoot -34.6367 -25.5078
rtoes -14.5405
lfemur -8.2032 -12.9671 -19.1562
ltibia 31.6078
lfoot -31.0783 23.6576
ltoes 7.46577
273
root -23.2845 14.9456 0.956259 719.247 -193.079 -717.799
lowerback 3.74158 1.78112 -4.13841
upperback 4.19698 2.62863 -2.01909
thorax 2.14664 1.36513 0.19435
lowerneck -2.14861 4.04307 8.3414
upperneck 5.03233 5.33394 -3.77624
head 2.35891 2.755 -2.53565
rclavicle -1.45113e-014 5.24792e-014
rhumerus -30.5996 2.74937 -92.5685
rradius 32.4453
rwrist -15.8361
rhand -15.7336 2.06882
rfingers 7.12502
rthumb 10.4571 -27.6511
lclavicle -1.45113e-014 5.24792e-014
lhumerus -29.9444 5.24912 64.2562
lradius 35.5984
lwrist 11.7731
lhand -28.3841 19.7702
lfingers 7.12502
lthumb -1.75689 49.7428
rfemur -12.7541 -5.97923 26.6249
rtibia 42.1087
rfoot -36.2753 -26.3405
rtoes -10.6555
lfemur -8.06005 -12.7311 -19.178
ltibia 31.8436
lfoot -32.6339 24.3172
ltoes 9.82199
274
root -23.3316 14.9396 0.973365 719.372 -195.117 -717.62
lowerback 3.64816 1.85417 -3.8292
upperback 4.14426 2.7146 -1.94191
thorax 2.14898 1.40726 0.102147
lowerneck -2.18386 4.34073 8.45719
upperneck 5.04896 5.73229 -3.95021
head 2.41039 2.95032 -2.60033
rclavicle 6.42074e-014 -1.43125e-014
rhumerus -30.5951 2.94839 -92.6628
rradius 32.685
rwrist -16.0238
rhand -15.7325 2.02136
rfingers 7.12502
rthumb 10.4582 -27.6985
lclavicle 6.42074e-014 -1.43125e-014
lhumerus -30.2668 5.4683 64.1291
lradius 35.8399
lwrist 11.8656
lhand -28.3911 19.6759
lfingers 7.12502
lthumb -1.7636 49.6483
rfemur -12.697 -6.72299 27.0334
rtibia 41.7204
rfoot -37.8778 -27.1264
rtoes -7.13712
lfemur -7.92359 -12.4723 -19.2994
ltibia 32.0592
lfoot -34.2765 24.8283
ltoes 12.3757
275
root -23.3766 14.9321 0.990692 719.48 -197.102 -717.585
lowerback 3.56722 1.92379 -3.59324
upperback 4.0838 2.79774 -1.91386
thorax 2.13697 1.44856 -0.000230723
lowerneck -2.14389 4.63254 8.66502
upperneck 5.00427 6.13069 -4.24919
head 2.43868 3.1441 -2.72583
rclavicle -1.05356e-014 -7.31528e-014
rhumerus -30.5912 3.09844 -92.7668
rradius 32.9135
rwrist -16.209
rhand -15.7863 1.97621
rfingers 7.12502
rthumb 10.4063 -27.7463
lclavicle -1.05356e-014 -7.31528e-014
lhumerus -30.598 5.61556 64.1606
lradius 35.9653
lwrist 11.8065
lhand -28.3154 19.498
lfingers 7.12502
lthumb -1.69052 49.471
rfemur -12.6577 -7.27009 27.2768
rtibia 41.3554
rfoot -39.2685 -27.7863
rtoes -4.4608
lfemur -7.80421 -12.1812 -19.5554
ltibia 32.2178
lfoot -35.9156 25.2401
ltoes 14.9205
276
root -23.4194 14.9228 1.00823 719.549 -199.063 -717.735
lowerback 3.49276 1.99989 -3.47735
upperback 4.00828 2.89047 -1.94328
thorax 2.10429 1.49414 -0.095499
lowerneck -1.97515 4.92438 9.00149
upperneck 4.84915 6.54231 -4.72986
head 2.42434 3.34254 -2.94049
rclavicle 1.47101e-014 -1.11319e-014
rhumerus -30.5876 3.18043 -92.874
rradius 33.1045
rwrist -16.3627
rhand -15.8356 1.89979
rfingers 7.12502
rthumb 10.3588 -27.8251
lclavicle 1.47101e-014 -1.11319e-014
lhumerus -30.903 5.68683 64.3547
lradius 35.9384
lwrist 11.5831
lhand -28.1884 19.2781
lfingers 7.12502
lthumb -1.56785 49.2521
rfemur -12.6499 -7.5582 27.3202
rtibia 41.026
rfoot -40.3833 -28.2381
rtoes -2.66345
lfemur -7.69502 -11.814 -19.9811
ltibia 32.3012
lfoot -37.4963 25.5842
ltoes 17.3189
277
root -23.4604 14.912 1.02549 719.551 -201.007 -718.153
lowerback 3.40096 2.08002 -3.54717
upperback 3.91123 2.99027 -2.04973
thorax 2.05544 1.5416 -0.166374
lowerneck -1.64691 5.22191 9.45926
upperneck 4.56704 6.97835 -5.38813
head 2.35893 3.55268 -3.2446
rclavicle 5.62561e-014 1.19271e-014
rhumerus -30.5902 3.20492 -92.9851
rradius 33.2433
rwrist -16.4619
rhand -15.859 1.76736
rfingers 7.12502
rthumb 10.3362 -27.9586
lclavicle 5.62561e-014 1.19271e-014
lhumerus -31.1515 5.70855 64.7004
lradius 35.7289
lwrist 11.1637
lhand -28.041 19.065
lfingers 7.12502
lthumb -1.42552 49.04
rfemur -12.6947 -7.4721 27.0973
rtibia 40.7357
rfoot -41.2916 -28.4674
rtoes -1.48045
lfemur -7.60526 -11.3404 -20.6477
ltibia 32.2953
lfoot -38.9719 25.895
ltoes 19.4692
278
root -23.4978 14.8993 1.04206 719.467 -202.965 -718.748
lowerback 3.29928 2.17244 -3.73549
upperback 3.80053 3.10815 -2.20374
thorax 1.99503 1.59743 -0.220402
lowerneck -1.18012 5.52014 9.98721
upperneck 4.1922 7.43095 -6.15111
head 2.25322 3.77333 -3.60624
rclavicle -1.68967e-014 6.36111e-015
rhumerus -30.6094 3.18239 -93.103
rradius 33.3279
rwrist -16.5214
rhand -15.8653 1.6148
rfingers 7.12502
rthumb 10.3301 -28.1115
lclavicle -1.68967e-014 6.36111e-015
lhumerus -31.3179 5.69923 65.1821
lradius 35.3271
lwrist 10.5292
lhand -27.8885 18.8709
lfingers 7.12502
lthumb -1.27823 48.8468
rfemur -12.7483 -6.90753 26.7148
rtibia 40.4669
rfoot -42.1195 -28.4768
rtoes -0.541022
lfemur -7.50748 -10.7136 -21.447
ltibia 32.2142
lfoot -40.3124 26.1851
ltoes 21.312
279
root -23.5303 14.8853 1.05773 719.263 -204.94 -719.508
lowerback 3.19694 2.28181 -4.03422
upperback 3.68872 3.25179 -2.40055
thorax 1.93049 1.66613 -0.257578
lowerneck -0.656045 5.80974 10.4963
upperneck 3.80343 7.8799 -6.89045
head 2.1362 3.99625 -3.96371
rclavicle -3.97569e-015 -4.77083e-015
rhumerus -30.6446 3.08506 -93.2215
rradius 33.3519
rwrist -16.5292
rhand -15.8177 1.46655
rfingers 7.12502
rthumb 10.376 -28.2574
lclavicle -3.97569e-015 -4.77083e-015
lhumerus -31.3811 5.66932 65.784
lradius 34.7513
lwrist 9.6781
lhand -27.6864 18.6731
lfingers 7.12502
lthumb -1.08304 48.6501
rfemur -12.7697 -5.80536 26.1969
rtibia 40.2045
rfoot -42.9758 -28.3324
rtoes 0.455051
lfemur -7.38604 -9.9081 -22.3531
ltibia 32.0885
lfoot -41.473 26.4756
ltoes 22.782
280
root -23.5581 14.8704 1.07256 718.942 -206.911 -720.365
lowerback 3.10668 2.40207 -4.36812
upperback 3.58263 3.41317 -2.62397
thorax 1.8643 1.74507 -0.303469
lowerneck -0.109648 6.08495 10.9108
upperneck 3.55829 8.33377 -7.87755
head 1.85882 4.20593 -3.92887
rclavicle -4.6118e-014 -2.3059e-014
rhumerus -30.6909 2.88054 -93.3272
rradius 33.303
rwrist -16.4584
rhand -15.684 1.34995
rfingers 7.12502
rthumb 10.505 -28.3676
lclavicle -4.6118e-014 -2.3059e-014
lhumerus -31.3385 5.64919 66.4816
lradius 34.041
lwrist 8.61209
lhand -27.3467 18.4353
lfingers 7.12502
lthumb -0.754935 48.4137
rfemur -12.7358 -4.24195 25.6028
rtibia 39.9286
rfoot -43.8405 -28.1297
rtoes 1.44067
lfemur -7.2654 -8.93055 -23.2869
ltibia 31.9835
lfoot -42.4602 26.7435
ltoes 23.9448
281
root -23.5818 14.8559 1.08662 718.575 -208.863 -721.19
lowerback 3.02766 2.52804 -4.60986
upperback 3.4758 3.58328 -2.84651
thorax 1.79534 1.83091 -0.400395
lowerneck 0.351324 6.34473 11.3022
upperneck 3.3153 8.74297 -8.44337
head 1.79266 4.41561 -4.16383
rclavicle -4.25399e-014 -7.15625e-015
rhumerus -30.7446 2.55121 -93.4155
rradius 33.1678
rwrist -16.2931
rhand -15.4941 1.2797
rfingers 7.12502
rthumb 10.6881 -28.4284
lclavicle -4.25399e-014 -7.15625e-015
lhumerus -31.2189 5.66107 67.2472
lradius 33.2632
lwrist 7.36449
lhand -26.8358 18.1495
lfingers 7.12502
lthumb -0.261466 48.1291
rfemur -12.6608 -2.37976 25.0464
rtibia 39.6285
rfoot -44.5093 -28.0318
rtoes 1.96933
lfemur -7.20208 -7.77656 -24.1123
ltibia 31.9675
lfoot -43.2783 26.9646
ltoes 24.8438
282
root -23.6026 14.8437 1.10028 718.24 -210.813 -721.857
lowerback 2.96914 2.65717 -4.65587
upperback 3.36288 3.75502 -3.03577
thorax 1.71736 1.92033 -0.572772
lowerneck 0.753177 6.5901 11.6493
upperneck 3.17372 9.1304 -8.89669
head 1.76072 4.61647 -4.3556
rclavicle -6.27166e-014 -2.14687e-014
rhumerus -30.7937 2.13537 -93.4912
rradius 32.9266
rwrist -16.0366
rhand -15.3502 1.24858
rfingers 7.12502
rthumb 10.827 -28.4523
lclavicle -6.27166e-014 -2.14687e-014
lhumerus -31.0744 5.73849 68.0598
lradius 32.5007
lwrist 5.99949
lhand -26.1721 17.8288
lfingers 7.12502
lthumb 0.379534 47.8082
rfemur -12.5649 -0.413172 24.6283
rtibia 39.2965
rfoot -44.8633 -28.0253
rtoes 2.15898
lfemur -7.25045 -6.41085 -24.7064
ltibia 32.1204
lfoot -43.8959 27.1336
ltoes 25.4245
